<svg width="262" height="166" viewBox="0 0 262 166" fill="none" xmlns="http://www.w3.org/2000/svg">
<g filter="url(#filter0_d_70_664)">
<g filter="url(#filter1_d_70_664)">
<path d="M119.895 0.0503159L122.624 0.045556C124.519 0.0427007 126.415 0.0415903 128.31 0.0422248C130.228 0.0422248 132.146 0.039052 134.063 0.0327069C155.163 -0.0386758 155.163 -0.038675 164.509 1.08203L165.59 1.21052C167.718 1.47369 169.83 1.79634 171.945 2.15278L173.815 2.46448C185.499 4.45939 199.963 7.46841 207.815 17.2621C209.897 20.244 210.257 23.1241 210.703 26.6889L210.945 28.4764C211.154 30.0411 211.358 31.6067 211.558 33.1733C211.761 34.7419 211.971 36.3094 212.181 37.8765C212.897 43.2601 213.587 48.647 214.251 54.0371C214.518 56.1276 214.803 58.2154 215.09 60.3035L215.248 61.4509C215.462 62.9997 215.676 64.5483 215.892 66.0965C216.053 67.2488 216.212 68.4012 216.37 69.5538L216.518 70.6036C216.777 72.5081 216.906 74.3502 216.856 76.2719H217.808C218.888 81.3262 219.625 86.4358 220.411 91.5421C220.599 92.7568 220.788 93.9716 220.978 95.1864L221.15 96.3176C221.378 97.7762 221.623 99.1381 222.091 100.542L223.043 101.018V101.97L224.054 102.31C225.681 103.037 226.886 103.981 228.278 105.092C230.877 107.142 233.541 109.037 236.275 110.905C238.27 112.294 240.202 113.757 242.14 115.224C245.542 117.851 245.542 117.851 249.217 120.053V121.005C249.558 121.129 249.9 121.253 250.252 121.381C251.655 121.982 252.811 122.694 254.064 123.563L255.305 124.407C257.011 125.838 257.271 126.83 257.485 129.036C257.379 132.071 255.581 133.76 253.47 135.757C251.139 137.764 248.63 139.156 245.885 140.516L244.827 141.072C242.125 142.473 239.304 143.631 236.398 144.531L235.046 144.956C229.381 146.681 223.605 147.896 217.808 149.082L216.253 149.406C204.614 151.814 192.933 153.308 181.106 154.376L179.84 154.493C176.635 154.783 173.429 155.032 170.22 155.269L168.568 155.397C155.464 156.389 142.352 156.399 129.216 156.397C126.722 156.397 124.229 156.403 121.736 156.417C91.8524 156.57 60.5525 155.508 31.6782 146.959C30.349 146.578 29.007 146.254 27.6622 145.93C19.319 143.858 9.96401 140.46 4.61173 133.378C3.88077 131.185 3.71278 129.138 4.61934 127.007C5.94706 125.259 7.57364 124.177 9.37058 122.939C10.1469 122.391 10.9226 121.843 11.6977 121.295L12.9126 120.441C14.8856 119.041 16.8263 117.598 18.7693 116.157C21.5085 114.135 24.2491 112.115 27.0083 110.119L27.8411 109.509C29.7242 108.156 29.7242 108.156 30.7854 108.156V107.204C31.642 106.517 31.642 106.517 32.8379 105.717C35.1759 104.133 37.4468 102.475 39.7082 100.782C40.779 100.066 40.779 100.066 41.7308 100.066L41.7783 99.061C42.09 93.97 42.9528 88.997 43.8128 83.9755L44.2515 81.3643C44.8764 77.6572 45.5188 73.9581 46.244 70.2695C47.2025 65.219 47.8649 60.1237 48.5645 55.0326C48.9794 52.0155 49.4006 49.0003 49.8208 45.9842L50.0702 44.192C50.6998 39.6639 51.3355 35.1368 51.9942 30.6126C52.0906 29.9505 52.1861 29.2881 52.2807 28.6253C53.3195 21.3671 54.4164 17.027 60.4406 12.4438C64.8078 9.39289 69.571 7.57215 74.5668 5.84088L76.0782 5.30551C82.6978 3.1074 89.6786 2.11518 96.5765 1.23099C97.0143 1.17388 97.4521 1.11677 97.9033 1.05872C105.216 0.17357 112.539 0.0531712 119.895 0.0503159Z" fill="#252525"/>
<path d="M250.644 121.481C256.247 125.072 256.247 125.072 257.307 127.192C257.482 129.296 257.538 130.516 256.623 132.426C253.532 136.044 250.127 138.414 245.885 140.516L244.826 141.072C242.125 142.473 239.304 143.631 236.398 144.531L235.046 144.956C229.381 146.681 223.605 147.896 217.808 149.082L216.253 149.406C204.614 151.814 192.933 153.308 181.105 154.377L179.84 154.493C176.635 154.783 173.428 155.032 170.22 155.269L168.568 155.397C155.464 156.389 142.352 156.399 129.216 156.397C126.722 156.397 124.229 156.403 121.736 156.417C91.8523 156.57 60.5524 155.508 31.678 146.959C30.3489 146.578 29.0069 146.254 27.662 145.93C19.3188 143.858 9.96388 140.46 4.6116 133.378C3.87112 131.157 3.78166 129.073 4.6116 126.894C5.98072 125.269 7.62919 124.112 9.37045 122.909L10.3222 123.384L9.84634 124.336C10.3355 125.581 11.0303 126.585 11.7799 127.697C12.7016 129.095 12.7016 129.095 13.1775 130.523C13.9637 130.856 14.7594 131.169 15.557 131.475C16.138 131.831 16.7124 132.2 17.282 132.575C25.8475 138 36.2213 139.995 46.0136 141.944L47.5869 142.262C65.2341 145.742 83.4524 146.863 101.4 147.565C102.972 147.627 104.544 147.7 106.115 147.779C113.07 148.12 120.011 148.226 126.974 148.22H128.668C138.058 148.21 147.387 147.924 156.751 147.255C157.898 147.176 159.044 147.099 160.191 147.024C207.85 146.103 207.85 146.103 248.889 127.459C249.876 125.962 250.524 124.604 251.12 122.909L250.644 121.481Z" fill="#242424"/>
<path d="M208.766 22.497C209.114 24.0474 209.114 24.0474 209.332 25.8877L209.56 27.7355L209.718 29.1594L210.67 28.2076C211.06 30.9144 211.449 33.6214 211.838 36.3286C211.969 37.2461 212.101 38.1636 212.234 39.0811C214.388 54.0334 214.388 54.0334 214.953 61.0437H214.001L214.176 62.1701C214.437 63.8664 214.696 65.5631 214.953 67.2601L215.228 69.0323L215.488 70.7565L215.73 72.335C215.914 73.9768 215.934 75.5729 215.905 77.2237C211.988 78.6619 208.052 79.5004 203.948 80.198L202.506 80.4502C199.688 80.9099 197.002 81.1022 194.148 81.0137C192.983 80.9775 192.983 80.9775 191.634 81.5067C190.752 77.5521 190.237 73.5704 189.761 69.5501L189.636 68.5136C188.97 62.9724 188.426 57.4269 187.933 51.8672C187.34 45.3523 186.548 38.8622 185.745 32.3702L185.591 31.1057C185.495 30.3221 185.397 29.539 185.299 28.7563C185.08 26.977 184.916 25.2424 184.972 23.4487H186.4L186.876 25.8282V23.4487C188.856 22.9914 190.816 22.8406 192.839 22.7349L193.868 22.6764C195.312 22.5941 196.756 22.516 198.201 22.4375C199.259 22.3791 200.317 22.3196 201.375 22.259L202.356 22.2081C203.704 22.131 204.967 22.0192 206.284 21.7084C207.339 21.5452 207.339 21.5452 208.766 22.497Z" fill="#252525"/>
<path d="M5.56355 127.667L5.92046 129.274C6.32973 131.021 6.32973 131.021 7.52658 131.683L8.41886 131.95V132.902C9.52862 133.476 10.5584 133.933 11.7501 134.33V135.282L12.8099 135.689C13.9939 136.177 15.0851 136.727 16.2115 137.334C19.3499 138.932 22.6754 139.943 26.0266 140.992V141.944L27.696 142.124C29.7076 142.377 31.6244 142.822 33.5813 143.342C36.1097 143.997 38.6257 144.593 41.2012 145.041C42.2067 145.275 42.2067 145.275 43.2855 145.735C44.6594 146.255 45.9191 146.502 47.371 146.72L48.9547 146.964L50.5942 147.209C51.6709 147.371 52.748 147.536 53.8254 147.701L55.2669 147.917C56.4832 148.131 56.4832 148.131 57.9109 148.606C58.7023 148.693 59.4961 148.759 60.2903 148.815C62.8417 149.015 65.3901 149.253 67.9345 149.529L69.0942 149.652C70.6836 149.822 72.2729 149.992 73.8621 150.163C78.3763 150.647 82.8872 151.128 87.4158 151.462L89.0519 151.586C129.194 154.455 171.213 153.453 210.833 146.224C213.143 145.805 215.47 145.488 217.808 145.275V144.799C218.069 144.749 218.33 144.699 218.599 144.647C226.279 143.308 226.279 143.308 233.699 141.007C235.094 140.455 236.503 140.042 237.944 139.624C240.444 138.861 242.655 137.972 244.934 136.709L246.194 136.072C248.859 134.695 251.068 133.232 253.234 131.151C253.975 130.523 253.976 130.523 254.927 130.523L255.403 129.571L256.355 127.667H257.307C257.528 130.426 257.181 131.73 255.403 133.854C252.573 136.773 249.509 138.72 245.885 140.516L244.827 141.072C242.125 142.473 239.304 143.631 236.398 144.531L235.046 144.956C229.381 146.681 223.605 147.896 217.808 149.082L216.254 149.406C204.614 151.814 192.933 153.308 181.106 154.377L179.84 154.493C176.635 154.783 173.429 155.032 170.22 155.269L168.568 155.397C155.464 156.39 142.352 156.399 129.216 156.397C126.722 156.397 124.229 156.403 121.736 156.417C91.8524 156.57 60.5525 155.508 31.6782 146.959C30.3491 146.578 29.0071 146.254 27.6622 145.93C19.319 143.858 9.96406 140.46 4.61178 133.378C4.00122 131.546 4.10449 130.072 4.1359 128.143C5.08767 127.667 5.08767 127.667 5.56355 127.667Z" fill="#070707"/>
<path d="M203.056 13.931C204.948 14.1813 205.702 15.0417 206.922 16.4594L207.908 17.5839C210.749 21.243 210.26 25.6916 210.194 30.1111C208.577 28.4941 208.809 26.1708 208.559 23.9674L208.291 22.497C206.993 21.8483 206.385 22.2067 204.959 22.497C203.565 22.6216 202.169 22.6845 200.772 22.7516L193.188 23.1337C191.084 23.24 188.98 23.345 186.876 23.4487L187.352 24.8764L186.876 25.8282L185.924 25.3523L186.4 23.4487H184.972L185.178 24.6256C185.482 26.5177 185.729 28.4141 185.965 30.3158L186.111 31.4893C186.268 32.7551 186.424 34.0208 186.578 35.2864L186.741 36.6108C187.498 42.7777 188.15 48.957 188.698 55.146C189.491 63.9522 190.585 72.728 191.635 81.5067L192.453 81.0308C193.661 80.5007 194.371 80.4826 195.68 80.5492C198.525 80.6063 201.211 80.1804 204.008 79.6926L205.472 79.4537C208.223 78.9864 210.847 78.373 213.497 77.4993C214.477 77.2237 214.477 77.2237 215.905 77.2237L215.73 76.0459C215.516 74.5935 215.303 73.1408 215.091 71.6878C214.955 70.7538 214.817 69.8199 214.677 68.8862L214.418 67.0921L214.176 65.4461C214.008 63.9627 213.97 62.5351 214.001 61.0436H214.953C215.273 63.0458 215.59 65.0485 215.905 67.0517L216.18 68.7673L216.44 70.4314L216.682 71.9566C216.856 73.4105 216.887 74.8096 216.857 76.272H217.808C218.467 79.3619 219.021 82.4647 219.533 85.5817L219.729 86.7214C220.143 89.2969 220.245 91.7468 220.188 94.3556L219.236 93.8797C218.961 92.8451 218.961 92.8451 218.743 91.4855L218.499 89.987L218.254 88.407L218.004 86.8713C217.538 83.9844 217.156 81.0845 216.857 78.1755L215.131 78.8003C209.509 80.6582 203.711 81.3925 197.851 82.0126L196.717 82.1344C189.164 82.9429 181.615 83.5421 174.027 83.8861L172.639 83.9494C134.573 85.6564 94.0682 87.3972 56.4538 79.8711L55.0371 79.5922C52.2308 78.9945 49.9694 78.0994 47.4415 76.7478H46.4897L46.5792 77.9376C46.4674 80.0229 45.8587 81.4853 45.0621 83.4102H44.5862C44.7408 79.3776 45.3033 75.4568 45.9843 71.4836L46.2289 70.025L46.4731 68.6411L46.6905 67.401C46.9651 66.2803 47.3601 65.3813 47.9174 64.3748H48.3933C48.0935 68.0249 47.7789 71.6735 47.4415 75.3202C68.9053 90.4019 149.068 83.7177 186.556 81.579C187.776 81.5095 188.985 81.4934 190.207 81.5067L189.998 79.7773C188.447 66.936 186.988 54.0837 185.62 41.2216C185.508 40.1642 185.395 39.1066 185.282 38.0489C185.102 36.3725 184.925 34.696 184.749 33.0193C184.651 32.1014 184.553 31.1838 184.455 30.2663L184.281 28.5959L184.128 27.1435C184.027 25.9043 184.001 24.6908 184.02 23.4487H182.593V25.8282H182.117V23.4487L180.461 23.67C177.005 24.0498 173.531 24.1035 170.056 24.1887L168.866 24.2187C157.479 24.4995 146.089 24.4724 134.699 24.4624C131.585 24.4605 128.47 24.4611 125.356 24.4643C108.248 24.4771 91.1491 24.3891 74.0611 23.4782L72.8871 23.4183C66.7696 23.1047 60.6711 22.6778 54.5798 22.0211L54.4936 22.8815C54.2319 25.3765 53.8122 27.6903 53.1521 30.1111H52.6762C52.4421 26.2707 52.5021 21.5309 54.7287 18.244C55.3831 17.5892 55.3831 17.5892 56.4833 16.7863L56.6917 17.6786C56.9268 18.7056 56.9268 18.7056 57.4351 19.6416H55.0557L55.5315 20.5934C56.9306 20.8152 58.2855 20.9603 59.6955 21.0693L61.1227 21.1854C66.2922 21.5756 71.4704 21.8145 76.6489 22.0511L77.89 22.1086C94.7583 22.8843 111.632 23.0528 128.516 23.0347C131.12 23.0328 133.724 23.0334 136.328 23.0366C153.225 23.0514 170.115 22.8605 186.995 22.0506L188.295 21.9906C194.661 21.6956 201.003 21.3053 207.339 20.5934V19.6416H204.959L206.863 19.1658C205.674 17.3398 204.444 15.6157 203.056 13.931Z" fill="#010101"/>
<path d="M236.368 111.963C238.167 112.256 239.27 113.077 240.71 114.164C242.51 115.505 244.315 116.832 246.153 118.12L247.315 118.936C248.241 119.591 248.241 119.591 249.217 120.053V121.005L250.644 121.481C251.21 122.463 251.21 122.463 251.596 123.385H250.644V124.545C249.693 127.933 246.999 130.255 244.071 132.069C227.078 141.294 206.259 143.105 187.352 145.275L186.276 145.399C178.088 146.336 169.875 146.921 161.654 147.476L160.317 147.567C149.395 148.297 138.516 148.693 127.569 148.666L125.853 148.663C117.473 148.648 109.109 148.598 100.741 148.131L99.5927 148.067C31.9928 144.324 31.9928 144.324 13.1777 130.523C12.2912 129.45 12.2912 129.45 11.6016 128.352L10.893 127.249C10.3224 126.24 10.3224 126.24 9.84655 124.812L8.89478 124.336C10.0379 122.825 11.0919 121.549 12.7019 120.529H13.6536V121.957L12.7019 122.433L11.7501 123.86L10.7983 123.385C12.4192 128.281 15.4506 130.778 19.9358 133.096C25.5427 135.838 31.4194 137.54 37.4479 139.089L38.5443 139.376C59.4276 144.756 81.6957 145.578 103.12 146.703L104.176 146.759C129.8 148.09 155.331 146.627 180.861 144.431C181.974 144.336 183.088 144.243 184.201 144.151C216.149 141.548 216.149 141.548 245.22 129.365C246.361 128.619 246.361 128.619 247.789 128.143C248.346 126.99 248.346 126.99 248.741 125.764L249.217 124.812C249.535 123.445 249.535 123.445 249.217 121.957C247.721 120.412 246.078 119.533 243.982 119.102V117.674L242.882 117.258C241.603 116.722 241.603 116.722 240.175 115.77V114.819L239.075 114.462C237.683 113.815 237.177 113.241 236.368 111.963ZM220.188 97.6868H221.139L221.556 99.0849C221.921 100.593 221.921 100.593 223.043 101.018V101.97L224.04 102.3C225.724 103.057 227.082 104.1 228.516 105.241L229.317 105.868C230.883 107.095 232.437 108.339 233.988 109.584L232.561 110.06C231.776 109.532 231.776 109.532 230.955 108.751C229.655 107.576 228.45 106.532 226.85 105.777L225.422 106.253L225.333 105.39C224.795 103.941 223.879 103.662 222.567 102.922V101.97C221.254 102.157 220.734 102.373 219.799 103.347C210.053 112.744 184.545 111.083 171.647 111.963L170.522 112.042C144.959 113.805 118.681 113.933 93.1264 111.963L91.8415 111.865C51.2024 108.741 51.2024 108.741 43.2475 102.505L41.7308 101.494C40.346 101.737 40.346 101.737 39.3514 102.446C40.2608 100.763 41.077 99.6902 42.6826 98.6385C42.9458 99.6265 43.1585 100.468 43.1585 101.494C59.1021 107.93 75.947 109.148 92.948 110.357L94.1929 110.448C106.586 111.335 118.984 111.602 131.405 111.606L132.468 111.607C176.917 113.543 176.917 113.543 218.76 102.446C219.853 100.806 219.969 99.6198 220.188 97.6868Z" fill="black"/>
<path d="M214.001 61.0436H214.953C215.273 63.0458 215.59 65.0485 215.905 67.0516L216.18 68.7672L216.44 70.4314L216.682 71.9566C216.855 73.4104 216.887 74.8095 216.856 76.2719H217.808C218.467 79.3618 219.021 82.4646 219.533 85.5816L219.728 86.7214C220.142 89.2969 220.245 91.7467 220.188 94.3555L219.236 93.8796C218.961 92.8451 218.961 92.8451 218.743 91.4855L218.499 89.9869L218.254 88.407L218.004 86.8713C217.538 83.9843 217.155 81.0845 216.856 78.1754L215.131 78.8003C210.914 80.1994 206.566 81.2987 202.104 81.0307L202.58 80.079C203.601 79.7601 203.601 79.7601 204.937 79.4822L206.396 79.1729L207.934 78.8593L209.449 78.5404C211.598 78.0898 213.751 77.6529 215.905 77.2237L215.73 76.0458C215.516 74.5934 215.303 73.1407 215.091 71.6877C214.955 70.7537 214.817 69.8198 214.677 68.8862L214.418 67.0921L214.176 65.446C214.008 63.9627 213.97 62.535 214.001 61.0436Z" fill="#0A0A0A"/>
<path d="M114.449 0.068466L115.679 0.0660879C117.013 0.0648189 118.347 0.0651356 119.681 0.0670392C120.615 0.0670392 121.548 0.0665623 122.481 0.0656105C124.435 0.064976 126.39 0.065928 128.344 0.068466C130.838 0.0703696 133.333 0.0697361 135.827 0.0665636C137.754 0.0649773 139.682 0.0649773 141.609 0.0665636C142.529 0.0665636 143.448 0.066245 144.367 0.0656105C145.657 0.0646587 146.946 0.0657691 148.237 0.0689417L149.369 0.0656105C156.858 0.0941636 156.858 0.0941644 158.323 1.55799H105.975C108.006 -0.473091 111.706 0.0618037 114.449 0.068466Z" fill="#080808"/>
<path d="M52.6762 30.5869H53.1521C52.8361 35.6089 52.1456 40.5805 51.4722 45.564C51.2787 47.0011 51.0868 48.4388 50.8964 49.8769C50.5472 52.49 50.1887 55.1018 49.8209 57.7124L49.6801 58.725C49.563 59.5531 49.4388 60.3802 49.3136 61.2073L49.119 62.5036L48.8691 63.423L47.9174 63.8989C47.8017 60.058 48.1391 56.4094 48.7169 52.6156L48.9658 50.9262C49.1393 49.7575 49.3146 48.589 49.4916 47.4209C49.7619 45.6325 50.0251 43.8436 50.2873 42.0548L50.7989 38.636L51.0363 37.0195L51.2671 35.5123L51.4656 34.1927C51.7359 32.9121 52.1556 31.7857 52.6762 30.5869Z" fill="#111111"/>
<path d="M220.188 97.6868H221.139L221.556 99.0849C221.921 100.593 221.921 100.593 223.043 101.018V101.97L224.039 102.3C225.724 103.057 227.082 104.1 228.516 105.241L229.317 105.868C230.883 107.095 232.436 108.339 233.988 109.584L232.561 110.06C231.776 109.532 231.776 109.532 230.954 108.751C229.655 107.576 228.45 106.532 226.85 105.777L225.422 106.253L225.333 105.39C224.795 103.941 223.879 103.662 222.567 102.922V101.97C220.761 102.228 219.963 103.017 218.76 104.349L217.332 103.873L218.492 102.654C219.814 101.088 220.064 99.7397 220.188 97.6868Z" fill="#0D0D0D"/>
<path d="M236.368 111.963C238.167 112.256 239.27 113.077 240.71 114.164C242.51 115.505 244.315 116.832 246.153 118.12L247.314 118.936C248.241 119.591 248.241 119.591 249.217 120.053V121.005L250.644 121.481C251.21 122.463 251.21 122.463 251.596 123.384H250.644V124.812H249.692L249.663 123.533C249.112 121.588 248.407 121.132 246.783 120.044C245.854 119.561 245.004 119.311 243.982 119.102V117.674L242.882 117.257C241.602 116.722 241.602 116.722 240.175 115.77V114.819L239.075 114.462C237.683 113.814 237.177 113.241 236.368 111.963Z" fill="#0E0E0E"/>
<path d="M203.056 13.931C204.948 14.1813 205.702 15.0417 206.922 16.4594L207.907 17.5839C210.748 21.243 210.26 25.6916 210.194 30.1111C208.866 28.7834 208.98 27.7055 208.766 25.8581C208.497 23.3074 208.497 23.3074 207.339 21.0693V19.6416H204.959L206.863 19.1658C205.674 17.3398 204.443 15.6157 203.056 13.931Z" fill="#121212"/>
<path d="M187.827 6.31689C190.43 6.5772 192.529 7.23583 194.906 8.3099L195.911 8.75723C198.422 9.90316 200.986 11.1214 203.056 12.9793V13.9311C201.543 13.4109 200.286 12.7423 198.964 11.86C196.869 10.5347 194.703 9.68093 192.378 8.84527C191.614 8.5689 190.851 8.28939 190.09 8.00676L189.083 7.64509C188.303 7.26866 188.303 7.26866 187.827 6.31689Z" fill="#111111"/>
<path d="M170.696 2.50977C176.329 2.61256 181.471 3.88079 186.876 5.36508L186.4 6.31685C183.306 5.92281 180.264 5.30797 177.209 4.68123L175.628 4.36762L174.121 4.0583L172.751 3.78038C171.647 3.46153 171.647 3.46154 170.696 2.50977Z" fill="#0F0F0F"/>
<path d="M214.001 61.0436H214.953C215.273 63.0661 215.589 65.0886 215.905 67.1111L216.18 68.851L216.44 70.5242L216.682 72.0646C216.857 73.4166 216.857 73.4166 216.857 75.3201H215.905C214.998 70.5584 214.246 65.8924 214.001 61.0436Z" fill="#121212"/>
<path d="M211.622 43.9117H212.574C213.742 48.6658 214.096 53.3 214.001 58.1883C212.852 57.039 212.853 56.537 212.644 54.9537L212.458 53.5708L212.276 52.1208L212.083 50.6931C211.785 48.4193 211.536 46.2103 211.622 43.9117Z" fill="#0F0F0F"/>
</g>
<path d="M120.915 35.12C121.346 35.2713 121.603 35.5625 121.912 35.8899L122.224 36.2134C122.386 36.3823 122.547 36.552 122.707 36.7226C123.367 37.4883 123.367 37.4883 124.254 37.8865C124.909 38.0316 125.224 38.4419 125.67 38.9226C125.833 39.0939 125.997 39.265 126.16 39.4359L126.401 39.6879C126.711 39.9997 127.037 40.2871 127.372 40.5719C127.516 40.6971 127.655 40.8277 127.789 40.9634C127.794 41.2738 127.789 41.5842 127.775 41.8943C127.755 42.8677 127.87 43.4035 128.541 44.1572C128.821 44.4115 128.821 44.4115 129.164 44.6298C129.089 45.111 128.929 45.5135 128.731 45.9577L128.632 46.1811C128.524 46.4256 128.415 46.67 128.305 46.9142L128.073 47.4358C127.868 47.897 127.662 48.358 127.456 48.8186L127.089 49.6411C126.766 50.3637 126.443 51.0862 126.119 51.8085C125.554 53.0692 124.992 54.3308 124.431 55.5932C124.393 55.678 124.356 55.763 124.317 55.8506L123.764 57.0956C123.425 57.8576 123.087 58.6195 122.748 59.3813C122.636 59.6337 122.524 59.8861 122.412 60.1387L122.175 60.6703L121.862 60.6914L121.452 60.7204L121.045 60.7487C120.683 60.7719 120.683 60.7719 120.342 60.8994C120.064 60.7207 119.813 60.538 119.554 60.3338L119.316 60.1502C119.143 60.0163 118.969 59.8819 118.796 59.7472C118.486 59.5073 118.174 59.2691 117.861 59.0327C116.95 58.3427 116.95 58.3427 116.587 58.0663L116.321 57.8638C115.882 57.5164 115.882 57.5164 115.825 57.1462L115.788 56.7604C115.681 56.0291 115.518 55.5494 114.957 55.0561C114.273 54.56 113.617 54.3932 112.777 54.4246C112.306 54.5057 111.942 54.6934 111.538 54.942C111.291 55.0561 111.291 55.0561 111.061 55.0355C110.018 54.6074 109.073 53.7943 108.156 53.1484C106.703 52.1138 106.703 52.1138 105.186 51.1775C104.788 50.8635 104.736 50.6482 104.624 50.158L104.571 49.9335C104.516 49.6939 104.466 49.4536 104.416 49.2128L104.362 48.9572C104.309 48.7061 104.258 48.4547 104.208 48.203L104.161 47.9644C104.059 47.4073 104.059 47.4073 104.187 47.1504C104.904 47.1195 105.568 47.238 106.271 47.372L106.64 47.4405C107.028 47.5128 107.416 47.5855 107.803 47.6588L108.967 47.876C109.208 47.9209 109.449 47.9661 109.69 48.0115C111.437 48.3554 111.437 48.3554 113.195 48.1959C113.626 47.8106 113.681 47.3556 113.811 46.8067C113.894 46.5151 113.977 46.2239 114.062 45.9331L114.27 45.2027C114.518 45.1064 114.518 45.1064 114.842 45.0881C115.067 45.2761 115.273 45.4847 115.458 45.7111L115.626 45.9042C115.787 46.0891 115.945 46.2759 116.103 46.463C116.236 46.6161 116.37 46.7689 116.504 46.9213L116.69 47.1361C117.022 47.5119 117.362 47.8795 117.702 48.2481C117.992 48.5629 118.278 48.8821 118.559 49.2056C118.982 49.6941 119.422 50.1657 119.864 50.6373C120.102 50.8927 120.33 51.1437 120.534 51.4273C120.685 51.6532 120.685 51.6532 121.03 51.7334C121.612 51.7934 121.612 51.7934 122.104 51.5186C122.89 50.4902 122.3 48.4468 122.142 47.2573L122.029 46.4102L121.913 45.5297C121.812 44.7611 121.71 43.9926 121.608 43.2242C121.444 41.9921 121.281 40.7598 121.119 39.5274C121.062 39.0983 121.005 38.6692 120.948 38.2403L120.844 37.4498L120.795 37.0908C120.713 36.4657 120.669 35.865 120.686 35.2346L120.915 35.12ZM139.82 35.12L140.278 35.3492C140.199 36.7903 139.994 38.2167 139.806 39.6467L139.699 40.4636C139.606 41.177 139.513 41.8903 139.419 42.6036C139.269 43.7459 139.12 44.8883 138.97 46.0306C138.919 46.4276 138.866 46.8246 138.814 47.2216L138.718 47.9574L138.674 48.2872C138.604 48.8203 138.542 49.3544 138.487 49.8892L138.456 50.1911C138.435 50.713 138.545 51.1601 138.803 51.6189C139.182 51.821 139.527 51.8314 139.934 51.7334C140.295 51.52 140.564 51.2339 140.851 50.9314L141.009 50.7657C141.421 50.3303 141.824 49.8873 142.226 49.4419L142.507 49.1314C142.758 48.8534 143.008 48.575 143.257 48.2962C144.161 47.2878 144.161 47.2878 144.613 46.7969L144.781 46.6142C144.939 46.4437 145.096 46.2734 145.253 46.1032C145.552 45.7715 145.838 45.4329 146.121 45.0881L146.694 45.2027L146.738 45.4144C146.805 45.7333 146.874 46.0518 146.945 46.3699L147.013 46.7031C147.163 47.3688 147.293 47.7603 147.84 48.1816C149.098 48.8107 151.33 48.0303 152.624 47.7878C153.018 47.7149 153.412 47.6425 153.806 47.5706C154.05 47.5261 154.294 47.481 154.537 47.4351C155.984 47.168 155.984 47.168 156.662 47.1504C156.777 47.265 156.777 47.265 156.783 47.5068L156.763 47.8092L156.747 48.1083C156.518 48.9241 155.551 49.3657 154.886 49.8L154.15 50.2834L153.955 50.411C153.523 50.6945 153.094 50.982 152.668 51.2735C152.367 51.4782 152.066 51.6819 151.764 51.8847C151.616 51.9841 151.47 52.0843 151.324 52.1852C151.118 52.3265 150.911 52.4663 150.703 52.6044L150.343 52.8491C150.017 52.9938 150.017 52.9938 149.707 52.9116L149.444 52.7646C148.679 52.4367 147.805 52.4065 147.009 52.6573C146.354 52.9438 145.92 53.4395 145.563 54.0465C145.411 54.4546 145.411 54.4546 145.47 54.773C145.509 55.2006 145.478 55.4553 145.319 55.8581C144.813 56.4074 144.152 56.7964 143.525 57.1919C143.221 57.3839 142.921 57.5819 142.622 57.7815C142.431 57.9066 142.24 58.0312 142.048 58.1555C141.958 58.2144 141.868 58.2734 141.776 58.334L141.52 58.4944L141.295 58.6368C141.023 58.7453 140.894 58.7068 140.622 58.6079C140.466 58.5309 140.311 58.4522 140.156 58.3717C139.33 57.9952 138.514 58.115 137.643 58.2642C137.027 56.9543 136.427 55.6377 135.831 54.3186L135.546 53.6884C134.881 52.2161 134.217 50.7434 133.554 49.2701L133.428 48.9899L133.305 48.7172L133.184 48.4488C133.106 48.275 133.028 48.1012 132.951 47.9274C132.749 47.4753 132.543 47.0249 132.335 46.5762L132.204 46.2916C132.121 46.1118 132.037 45.9325 131.952 45.7538C131.638 45.0656 131.638 45.0656 131.8 44.6298C131.995 44.4499 131.995 44.4499 132.236 44.2717C132.829 43.775 133.113 43.1932 133.205 42.4251C133.212 42.0932 133.188 41.8053 133.081 41.4906C133.06 41.1925 133.06 41.1925 133.291 40.8859L133.611 40.5838L133.929 40.2773C134.206 40.0468 134.206 40.0468 134.435 40.0468L134.549 39.703H134.779L134.893 39.3593C135.081 39.1745 135.081 39.1745 135.316 38.9798C135.618 38.7256 135.895 38.4703 136.161 38.1778C136.497 37.8698 136.497 37.8698 136.88 37.7719C137.368 37.6193 137.575 37.4311 137.929 37.0669L138.095 36.8984C138.268 36.7223 138.439 36.5442 138.61 36.366C138.727 36.2455 138.845 36.1251 138.963 36.0049C139.25 35.7114 139.535 35.4162 139.82 35.12ZM124.593 64.2803L124.876 64.2816L125.202 64.2796L125.559 64.2847L125.935 64.2845C126.346 64.2848 126.757 64.2884 127.168 64.2919C127.452 64.2928 127.737 64.2935 128.022 64.294C128.695 64.2955 129.368 64.2991 130.041 64.3037C130.883 64.3093 131.724 64.3117 132.566 64.3144C134.067 64.3194 135.569 64.3269 137.07 64.3367C137.214 64.6234 137.358 64.9103 137.501 65.1972L137.623 65.4393C137.968 66.13 138.305 66.8252 138.632 67.5245L138.741 67.7573L138.853 67.9959L138.97 68.2443C139.576 69.5353 140.174 70.8299 140.765 72.1278L140.874 72.3666C141.27 73.2336 141.655 74.1024 141.997 74.9922C141.471 74.8318 140.993 74.617 140.508 74.3629L140.278 74.2441C140.032 74.1167 139.786 73.9889 139.541 73.8608L139.029 73.5954C138.606 73.3761 138.183 73.1564 137.761 72.9363C137.548 72.8253 137.335 72.7145 137.121 72.6039C136.037 72.0418 134.955 71.475 133.876 70.9033L133.661 70.7896C133.188 70.5374 133.188 70.5374 133.06 70.4092C133.032 70.2376 133.006 70.0657 132.981 69.8936C132.839 69.1649 132.532 68.5303 131.932 68.0703C131.144 67.6058 130.402 67.5853 129.508 67.6594C128.799 67.8491 128.29 68.3051 127.904 68.9197C127.688 69.3958 127.565 69.8285 127.545 70.3524C127.446 70.7529 127.446 70.7529 127.098 71.0245C126.946 71.1062 126.792 71.1851 126.636 71.2613L126.42 71.376C126.152 71.515 125.883 71.6511 125.613 71.7841L124.762 72.2084L124.525 72.3264C123.58 72.7988 122.641 73.2834 121.703 73.7677L120.411 74.4332C119.97 74.6609 119.527 74.8854 119.082 75.1068C119.313 74.3666 119.594 73.6624 119.912 72.9558L120.053 72.6385C120.204 72.3009 120.355 71.9636 120.507 71.6265L121.131 70.2329C121.182 70.1191 121.233 70.0052 121.286 69.888C121.577 69.2376 121.863 68.5845 122.142 67.9288L122.324 67.5033C122.431 67.2547 122.536 67.0053 122.639 66.7552C122.934 66.0707 123.278 65.5584 123.796 65.02C124.013 64.8042 124.013 64.8042 124.161 64.5552C124.352 64.3367 124.352 64.3367 124.593 64.2802M130.582 27.4794C130.947 27.5747 130.985 27.6573 131.184 27.9663C131.35 28.2532 131.483 28.5396 131.613 28.8458C131.785 29.2502 131.978 29.6417 132.177 30.0336L132.4 30.4738L132.518 30.7055C132.726 31.1137 132.932 31.5226 133.139 31.9314C133.401 32.45 133.663 32.9683 133.927 33.4861C134.141 33.9062 134.354 34.3268 134.566 34.748C134.647 34.9081 134.728 35.0679 134.81 35.2275C134.924 35.4502 135.036 35.6734 135.148 35.8971L135.343 36.2814C135.466 36.6095 135.466 36.6095 135.446 36.8634C135.282 37.218 134.992 37.4669 134.714 37.7338L134.526 37.9184C134.117 38.3168 133.695 38.7004 133.26 39.0684C133.054 39.2499 132.873 39.444 132.688 39.6458L132.372 39.9322C132.041 39.8895 131.739 39.7548 131.427 39.6387C130.644 39.3786 130.021 39.4041 129.263 39.7425C129.05 39.8176 129.05 39.8176 128.591 39.8176C128.328 39.5952 128.328 39.5952 128.047 39.2949C127.698 38.9302 127.35 38.5775 126.966 38.2493C126.588 37.9264 126.238 37.5842 125.893 37.2262C125.73 37.0554 125.73 37.0554 125.498 36.9532C125.568 36.5056 125.705 36.153 125.909 35.7493L126.094 35.3815L126.293 34.9911L126.497 34.5871C127.023 33.5488 127.56 32.5158 128.108 31.4882C128.358 31.0165 128.607 30.5441 128.856 30.0716L129.002 29.7953C129.296 29.2387 129.58 28.6791 129.848 28.1094C130.04 27.7731 130.208 27.5879 130.582 27.4794Z" fill="#EC1D25"/>
<path d="M156.09 50.8169C155.931 51.7318 155.741 52.6369 155.537 53.5426L155.352 54.3777C155.255 54.8112 155.158 55.2447 155.06 55.678C154.965 56.0998 154.871 56.5218 154.778 56.944L154.689 57.3336C154.473 58.3203 154.287 59.1864 154.829 60.0975L154.944 60.4412C155.192 60.5676 155.192 60.5676 155.517 60.6704C155.665 60.7275 155.813 60.7848 155.961 60.8422C156.38 60.9994 156.803 61.126 157.235 61.2432C157.203 61.9643 156.827 62.397 156.405 62.9475L156.187 63.2363C155.248 64.4753 154.278 65.6886 153.227 66.8351C152.875 67.2183 152.535 67.6108 152.194 68.0032C151.965 67.8886 151.965 67.8886 151.873 67.6347L151.783 67.2936L151.68 66.9068L151.57 66.4824L151.453 66.0427C151.35 65.6535 151.248 65.2639 151.146 64.8742C151.046 64.4906 150.944 64.1074 150.843 63.724C150.644 62.9706 150.446 62.2169 150.249 61.4629C150.15 61.085 150.051 60.7073 149.952 60.3297C149.858 59.9716 149.765 59.6134 149.671 59.2551L149.566 58.8564L149.472 58.4923L149.388 58.1731C149.33 57.9206 149.33 57.9206 149.33 57.6914C149.469 57.586 149.612 57.4857 149.759 57.3906C150.369 56.9515 150.587 56.4393 150.819 55.7436L150.787 55.3917C150.688 54.3055 150.688 54.3055 151.04 53.8607C151.365 53.6156 151.695 53.4142 152.051 53.2158L152.805 52.7571L153.191 52.5309C153.765 52.1896 154.317 51.8174 154.872 51.4471C155.059 51.3234 155.246 51.2005 155.433 51.0782L155.668 50.9245C155.86 50.8169 155.86 50.8169 156.09 50.8169Z" fill="#EB1D25"/>
<path d="M146.236 57.1185L146.441 57.339C146.74 57.6191 146.918 57.6398 147.314 57.7137C147.777 57.8737 147.921 57.9711 148.155 58.4091C148.336 58.9182 148.457 59.4426 148.579 59.9685C148.628 60.1621 148.678 60.3555 148.728 60.549C148.857 61.0571 148.982 61.5663 149.104 62.0764C149.229 62.5951 149.362 63.1122 149.493 63.6295C149.685 64.3849 149.872 65.1413 150.056 65.8987L150.115 66.1382C150.203 66.5087 150.246 66.8167 150.246 67.2011L150.028 67.2561C149.399 67.4275 148.917 67.6265 148.4 68.0268C148.184 68.1177 148.184 68.1177 147.931 68.0564C147.486 67.8233 147.066 67.5588 146.644 67.287L146.357 67.1035C146.153 66.9738 145.95 66.8439 145.747 66.7139C145.437 66.5157 145.126 66.3188 144.815 66.1225C143.721 65.4325 142.634 64.7321 141.553 64.0216L141.235 63.8145L140.945 63.6224L140.688 63.4533L140.507 63.3055V63.0764L140.765 62.8902C141.247 62.4737 141.454 61.9544 141.653 61.3577L141.613 61.061C141.562 60.6647 141.559 60.3725 141.653 59.9828C142.076 59.5234 142.587 59.2284 143.121 58.9159C143.26 58.83 143.398 58.7437 143.536 58.657C143.807 58.4879 144.079 58.3215 144.354 58.1579C144.833 57.871 145.299 57.5655 145.766 57.2589C146.007 57.1185 146.007 57.1185 146.236 57.1185ZM130.196 49.7856C130.52 50.0693 130.678 50.372 130.862 50.7591L131.047 51.1427L131.241 51.5545L131.444 51.9802C131.857 52.8474 132.258 53.7199 132.648 54.5977C133.131 55.6839 133.641 56.7579 134.15 57.8326C134.52 58.6158 134.881 59.4036 135.232 60.1958L135.338 60.4339C135.581 60.9869 135.581 60.9869 135.581 61.2432H125.154C125.63 60.0876 126.106 58.9421 126.622 57.8059C126.751 57.5208 126.88 57.2355 127.008 56.9501L127.111 56.721C127.68 55.454 128.234 54.1804 128.79 52.9078C129.247 51.8617 129.711 50.8196 130.196 49.7856Z" fill="#EC1D25"/>
<path d="M105.333 52.9938C105.857 53.1678 106.259 53.4649 106.693 53.7958C107.294 54.245 107.901 54.6776 108.526 55.092L108.743 55.2382C109.049 55.4435 109.346 55.6306 109.676 55.7969C109.969 55.9497 110.165 56.0589 110.374 56.3165C110.454 56.7263 110.467 57.1126 110.473 57.5298C110.5 58.195 110.714 58.6054 111.181 59.0703C111.402 59.2675 111.63 59.4572 111.863 59.6391C111.369 61.119 110.819 62.5755 110.252 64.0289L110.149 64.2932C109.695 65.4558 109.236 66.616 108.77 67.774C108.308 67.5624 108.011 67.2588 107.674 66.886L107.492 66.6854C106.91 66.0398 106.373 65.3638 105.846 64.6735C105.66 64.4301 105.474 64.1877 105.287 63.9451C104.593 63.0426 104.593 63.0426 104.354 62.7242C104.242 62.5768 104.128 62.4312 104.012 62.2877C103.609 61.7744 103.609 61.7744 103.636 61.365L103.729 61.1286L103.972 61.0986C104.905 60.9605 105.553 60.7248 106.185 60.0115C106.611 59.1255 106.457 58.2925 106.239 57.3664L106.161 57.0188C106.08 56.6555 105.996 56.2926 105.913 55.9298C105.83 55.5643 105.747 55.1988 105.665 54.8333C105.614 54.6066 105.563 54.3801 105.51 54.1535L105.44 53.8439L105.377 53.572C105.333 53.3375 105.333 53.3375 105.333 52.9938ZM115.186 58.9517C115.772 59.1349 116.2 59.4945 116.676 59.8683L116.933 60.0682C117.107 60.203 117.281 60.3382 117.454 60.4736C117.826 60.7631 118.2 61.0496 118.573 61.3363C118.781 61.4961 118.989 61.656 119.196 61.8161L119.117 62.0475C118.865 62.8543 118.833 63.504 118.967 64.3367L118.651 64.514L118.201 64.7664L117.956 64.9039C117.477 65.1728 117 65.4443 116.525 65.7184C114.592 66.8317 114.592 66.8317 113.691 67.2553C113.416 67.3976 113.166 67.5475 112.907 67.7162C111.712 68.479 111.712 68.479 111.123 68.4252C110.809 68.3094 110.546 68.1718 110.259 68.0031C110.476 67.2465 110.727 66.4998 111.01 65.7654L111.126 65.4614C111.247 65.1437 111.369 64.8261 111.491 64.5086L111.85 63.5691C111.929 63.3631 112.009 63.1573 112.088 62.9516C112.282 62.4507 112.472 61.9491 112.652 61.4429L112.757 61.1553C112.821 60.9772 112.884 60.7985 112.945 60.6191C113.094 60.2161 113.198 60.0098 113.561 59.77C113.876 59.6607 113.876 59.6607 114.201 59.5922C114.644 59.4917 114.866 59.2636 115.186 58.9517Z" fill="#EB1D25"/>
<path d="M132.602 71.8987C133.247 72.0841 133.809 72.3863 134.399 72.7007C134.763 72.8929 135.127 73.0848 135.492 73.2763C136.244 73.671 137 74.0587 137.756 74.4468L138.541 74.8511C139.385 75.285 140.23 75.7169 141.08 76.138C140.966 76.4817 140.966 76.4817 140.73 76.6149L140.416 76.7418L140.065 76.8844L139.684 77.0331L139.292 77.1871C137.657 77.8156 135.997 78.2534 134.277 78.5799L133.989 78.6352C133.074 78.7966 132.153 78.8406 131.227 78.8878C131.201 78.0519 131.182 77.2161 131.17 76.3801C131.165 76.0957 131.158 75.8114 131.149 75.5272C131.136 75.1181 131.131 74.7094 131.126 74.3003L131.11 73.9161C131.109 73.0479 131.109 73.0479 131.451 72.7044C131.727 72.522 131.727 72.522 132.002 72.3782C132.253 72.2448 132.413 72.1087 132.602 71.8987Z" fill="#EB1E26"/>
<path d="M127.789 72.1278C127.982 72.1605 128.172 72.1987 128.362 72.2424V72.4715L128.599 72.5647C128.98 72.719 129.359 72.8822 129.737 73.0444V78.8877C126.31 78.8877 122.895 78.0156 119.884 76.3671C120.229 76.093 120.581 75.8872 120.973 75.6864L121.361 75.4866L121.781 75.2715L122.217 75.0474C122.613 74.8436 123.01 74.6401 123.407 74.437C124.138 74.0625 124.868 73.6877 125.599 73.3124C125.868 73.1743 126.138 73.0364 126.407 72.8988L126.903 72.6443L127.135 72.526C127.485 72.3603 127.485 72.3603 127.789 72.1278Z" fill="#EB1D25"/>
<path d="M119.884 65.597C119.629 66.4309 119.29 67.2102 118.926 68.002C118.748 68.3897 118.572 68.7782 118.395 69.1667L118.283 69.4129C117.84 70.3884 117.408 71.3691 116.976 72.3497C116.919 72.4804 116.919 72.4804 116.86 72.6133C116.646 73.1007 116.431 73.5881 116.217 74.0756C115.882 74.0068 115.644 73.9074 115.361 73.7144L115.136 73.561C114.731 73.2772 114.327 72.9904 113.926 72.7007L113.706 72.5457C112.615 71.7683 112.615 71.7683 112.471 71.2904C112.472 71.0322 112.472 71.0322 112.515 70.796C112.553 70.5069 112.536 70.265 112.498 69.9764L112.464 69.7003L112.436 69.4926L112.74 69.3319C114.486 68.4087 116.23 67.4842 117.952 66.5181C118.308 66.3187 118.666 66.1219 119.024 65.9264C119.141 65.8623 119.258 65.7982 119.379 65.7322C119.655 65.597 119.655 65.597 119.884 65.597ZM140.851 65.2533C141.87 65.8163 142.842 66.4456 143.811 67.0903C144.392 67.4758 144.976 67.8442 145.584 68.1856C147.382 69.2126 147.382 69.2126 147.578 69.8108C147.632 70.2373 147.632 70.2373 147.616 70.6205C147.583 70.996 147.583 70.996 147.796 71.3437C147.955 71.6695 147.955 71.6695 147.88 71.8952C147.699 72.1685 147.512 72.3191 147.247 72.5115L146.959 72.7217L146.658 72.937L146.362 73.1539C145.374 73.8704 145.374 73.8704 144.976 74.0757C144.632 73.9611 144.632 73.9611 144.521 73.7755L144.426 73.5341L144.315 73.2612L144.202 72.9729C143.841 72.0678 143.441 71.1853 143.025 70.3042C142.707 69.6267 142.395 68.9467 142.082 68.2666C142 68.0893 141.919 67.912 141.836 67.7349C141.716 67.4736 141.595 67.2122 141.475 66.9505L141.365 66.7137C141.146 66.2339 140.984 65.7638 140.851 65.2534" fill="#EB1E26"/>
</g>
<defs>
<filter id="filter0_d_70_664" x="3" y="0" width="255.485" height="165.43" filterUnits="userSpaceOnUse" color-interpolation-filters="sRGB">
<feFlood flood-opacity="0" result="BackgroundImageFix"/>
<feColorMatrix in="SourceAlpha" type="matrix" values="0 0 0 0 0 0 0 0 0 0 0 0 0 0 0 0 0 0 127 0" result="hardAlpha"/>
<feMorphology radius="1" operator="dilate" in="SourceAlpha" result="effect1_dropShadow_70_664"/>
<feOffset dy="8"/>
<feComposite in2="hardAlpha" operator="out"/>
<feColorMatrix type="matrix" values="0 0 0 0 1 0 0 0 0 1 0 0 0 0 1 0 0 0 0.25 0"/>
<feBlend mode="normal" in2="BackgroundImageFix" result="effect1_dropShadow_70_664"/>
<feBlend mode="normal" in="SourceGraphic" in2="effect1_dropShadow_70_664" result="shape"/>
</filter>
<filter id="filter1_d_70_664" x="0" y="0" width="261.485" height="164.43" filterUnits="userSpaceOnUse" color-interpolation-filters="sRGB">
<feFlood flood-opacity="0" result="BackgroundImageFix"/>
<feColorMatrix in="SourceAlpha" type="matrix" values="0 0 0 0 0 0 0 0 0 0 0 0 0 0 0 0 0 0 127 0" result="hardAlpha"/>
<feOffset dy="4"/>
<feGaussianBlur stdDeviation="2"/>
<feComposite in2="hardAlpha" operator="out"/>
<feColorMatrix type="matrix" values="0 0 0 0 0 0 0 0 0 0 0 0 0 0 0 0 0 0 0.25 0"/>
<feBlend mode="normal" in2="BackgroundImageFix" result="effect1_dropShadow_70_664"/>
<feBlend mode="normal" in="SourceGraphic" in2="effect1_dropShadow_70_664" result="shape"/>
</filter>
</defs>
</svg>
